<mxfile host="app.diagrams.net" agent="Mozilla/5.0 (Windows NT 10.0; Win64; x64) AppleWebKit/537.36 (KHTML, like Gecko) Chrome/138.0.0.0 Safari/537.36" version="28.0.7">
  <diagram name="Page-1" id="iieroH_fATJ_U_RY2iGd">
    <mxGraphModel dx="1523" dy="644" grid="1" gridSize="10" guides="1" tooltips="1" connect="1" arrows="1" fold="1" page="1" pageScale="1" pageWidth="827" pageHeight="1169" math="0" shadow="0">
      <root>
        <mxCell id="0" />
        <mxCell id="1" parent="0" />
        <mxCell id="zziCevXuJVocLzWldBi8-1" value="Start" style="ellipse;whiteSpace=wrap;html=1;" vertex="1" parent="1">
          <mxGeometry x="464" y="40" width="120" height="50" as="geometry" />
        </mxCell>
        <mxCell id="zziCevXuJVocLzWldBi8-2" value="" style="edgeStyle=orthogonalEdgeStyle;rounded=0;orthogonalLoop=1;jettySize=auto;html=1;" edge="1" parent="1" source="zziCevXuJVocLzWldBi8-3" target="zziCevXuJVocLzWldBi8-7">
          <mxGeometry relative="1" as="geometry" />
        </mxCell>
        <mxCell id="zziCevXuJVocLzWldBi8-3" value="&lt;div&gt;&lt;span style=&quot;font-size: 12px;&quot;&gt;&amp;nbsp;รับค่า N จากผู้ใช้&lt;/span&gt;&lt;/div&gt;" style="rounded=0;whiteSpace=wrap;html=1;" vertex="1" parent="1">
          <mxGeometry x="464" y="170" width="120" height="60" as="geometry" />
        </mxCell>
        <mxCell id="zziCevXuJVocLzWldBi8-4" value="N เป็นเลขคี่หรือไม่" style="rhombus;whiteSpace=wrap;html=1;" vertex="1" parent="1">
          <mxGeometry x="439" y="350" width="170" height="80" as="geometry" />
        </mxCell>
        <mxCell id="zziCevXuJVocLzWldBi8-5" value="" style="endArrow=classic;html=1;rounded=0;exitX=0.5;exitY=1;exitDx=0;exitDy=0;" edge="1" parent="1" source="zziCevXuJVocLzWldBi8-1">
          <mxGeometry width="50" height="50" relative="1" as="geometry">
            <mxPoint x="800" y="350" as="sourcePoint" />
            <mxPoint x="524" y="140" as="targetPoint" />
          </mxGeometry>
        </mxCell>
        <mxCell id="zziCevXuJVocLzWldBi8-6" value="" style="edgeStyle=orthogonalEdgeStyle;rounded=0;orthogonalLoop=1;jettySize=auto;html=1;" edge="1" parent="1" source="zziCevXuJVocLzWldBi8-7" target="zziCevXuJVocLzWldBi8-4">
          <mxGeometry relative="1" as="geometry" />
        </mxCell>
        <mxCell id="zziCevXuJVocLzWldBi8-7" value="" style="ellipse;whiteSpace=wrap;html=1;aspect=fixed;" vertex="1" parent="1">
          <mxGeometry x="514" y="270" width="20" height="20" as="geometry" />
        </mxCell>
        <mxCell id="zziCevXuJVocLzWldBi8-8" value="" style="endArrow=none;html=1;rounded=0;" edge="1" parent="1">
          <mxGeometry width="50" height="50" relative="1" as="geometry">
            <mxPoint x="610" y="390" as="sourcePoint" />
            <mxPoint x="800" y="390" as="targetPoint" />
          </mxGeometry>
        </mxCell>
        <mxCell id="zziCevXuJVocLzWldBi8-9" value="ใช่" style="text;html=1;align=center;verticalAlign=middle;resizable=0;points=[];autosize=1;strokeColor=none;fillColor=none;" vertex="1" parent="1">
          <mxGeometry x="464" y="430" width="40" height="30" as="geometry" />
        </mxCell>
        <mxCell id="zziCevXuJVocLzWldBi8-10" value="ไม่" style="text;html=1;align=center;verticalAlign=middle;resizable=0;points=[];autosize=1;strokeColor=none;fillColor=none;" vertex="1" parent="1">
          <mxGeometry x="640" y="358" width="40" height="30" as="geometry" />
        </mxCell>
        <mxCell id="zziCevXuJVocLzWldBi8-11" value="" style="edgeStyle=orthogonalEdgeStyle;rounded=0;orthogonalLoop=1;jettySize=auto;html=1;" edge="1" parent="1" source="zziCevXuJVocLzWldBi8-12" target="zziCevXuJVocLzWldBi8-17">
          <mxGeometry relative="1" as="geometry" />
        </mxCell>
        <mxCell id="zziCevXuJVocLzWldBi8-12" value="&amp;nbsp;กำหนดค่าเริ่มต้น i = 1" style="whiteSpace=wrap;html=1;" vertex="1" parent="1">
          <mxGeometry x="464" y="640" width="120" height="60" as="geometry" />
        </mxCell>
        <mxCell id="zziCevXuJVocLzWldBi8-13" value="" style="edgeStyle=orthogonalEdgeStyle;rounded=0;orthogonalLoop=1;jettySize=auto;html=1;" edge="1" parent="1" source="zziCevXuJVocLzWldBi8-14" target="zziCevXuJVocLzWldBi8-19">
          <mxGeometry relative="1" as="geometry" />
        </mxCell>
        <mxCell id="zziCevXuJVocLzWldBi8-14" value="กำหนดค่าเริ่มต้น i = N" style="rounded=0;whiteSpace=wrap;html=1;" vertex="1" parent="1">
          <mxGeometry x="464" y="1318" width="120" height="60" as="geometry" />
        </mxCell>
        <mxCell id="zziCevXuJVocLzWldBi8-15" value="" style="endArrow=classic;html=1;rounded=0;" edge="1" parent="1">
          <mxGeometry width="50" height="50" relative="1" as="geometry">
            <mxPoint x="524" y="430" as="sourcePoint" />
            <mxPoint x="524" y="480" as="targetPoint" />
          </mxGeometry>
        </mxCell>
        <mxCell id="zziCevXuJVocLzWldBi8-16" value="" style="edgeStyle=orthogonalEdgeStyle;rounded=0;orthogonalLoop=1;jettySize=auto;html=1;" edge="1" parent="1" source="zziCevXuJVocLzWldBi8-17" target="zziCevXuJVocLzWldBi8-21">
          <mxGeometry relative="1" as="geometry" />
        </mxCell>
        <mxCell id="zziCevXuJVocLzWldBi8-17" value="ทำซ้ำขณะที่ i ≤ N:" style="rounded=0;whiteSpace=wrap;html=1;" vertex="1" parent="1">
          <mxGeometry x="464" y="760" width="120" height="60" as="geometry" />
        </mxCell>
        <mxCell id="zziCevXuJVocLzWldBi8-18" value="" style="edgeStyle=orthogonalEdgeStyle;rounded=0;orthogonalLoop=1;jettySize=auto;html=1;" edge="1" parent="1" source="zziCevXuJVocLzWldBi8-19" target="zziCevXuJVocLzWldBi8-24">
          <mxGeometry relative="1" as="geometry" />
        </mxCell>
        <mxCell id="zziCevXuJVocLzWldBi8-19" value="ทำซ้ำขณะที่ i ≥ 0:" style="rounded=0;whiteSpace=wrap;html=1;" vertex="1" parent="1">
          <mxGeometry x="464" y="1438" width="120" height="60" as="geometry" />
        </mxCell>
        <mxCell id="zziCevXuJVocLzWldBi8-20" value="" style="edgeStyle=orthogonalEdgeStyle;rounded=0;orthogonalLoop=1;jettySize=auto;html=1;" edge="1" parent="1" source="zziCevXuJVocLzWldBi8-21" target="zziCevXuJVocLzWldBi8-22">
          <mxGeometry relative="1" as="geometry" />
        </mxCell>
        <mxCell id="zziCevXuJVocLzWldBi8-21" value="แสดงค่า i" style="rounded=0;whiteSpace=wrap;html=1;" vertex="1" parent="1">
          <mxGeometry x="464" y="880" width="120" height="60" as="geometry" />
        </mxCell>
        <mxCell id="zziCevXuJVocLzWldBi8-22" value="เพิ่มค่า i ทีละ 2&amp;nbsp;&lt;div&gt;(i = i + 2)&lt;/div&gt;" style="rounded=0;whiteSpace=wrap;html=1;" vertex="1" parent="1">
          <mxGeometry x="464" y="1000" width="120" height="60" as="geometry" />
        </mxCell>
        <mxCell id="zziCevXuJVocLzWldBi8-23" value="" style="edgeStyle=orthogonalEdgeStyle;rounded=0;orthogonalLoop=1;jettySize=auto;html=1;" edge="1" parent="1" source="zziCevXuJVocLzWldBi8-24" target="zziCevXuJVocLzWldBi8-26">
          <mxGeometry relative="1" as="geometry" />
        </mxCell>
        <mxCell id="zziCevXuJVocLzWldBi8-24" value="แสดงค่า i" style="rounded=0;whiteSpace=wrap;html=1;" vertex="1" parent="1">
          <mxGeometry x="464" y="1558" width="120" height="60" as="geometry" />
        </mxCell>
        <mxCell id="zziCevXuJVocLzWldBi8-25" value="" style="edgeStyle=orthogonalEdgeStyle;rounded=0;orthogonalLoop=1;jettySize=auto;html=1;" edge="1" parent="1" source="zziCevXuJVocLzWldBi8-26" target="zziCevXuJVocLzWldBi8-36">
          <mxGeometry relative="1" as="geometry" />
        </mxCell>
        <mxCell id="zziCevXuJVocLzWldBi8-26" value="ลดค่า i ทีละ 2 (i = i - 2)" style="rounded=0;whiteSpace=wrap;html=1;" vertex="1" parent="1">
          <mxGeometry x="464" y="1678" width="120" height="60" as="geometry" />
        </mxCell>
        <mxCell id="zziCevXuJVocLzWldBi8-27" value="" style="endArrow=none;html=1;rounded=0;" edge="1" parent="1">
          <mxGeometry width="50" height="50" relative="1" as="geometry">
            <mxPoint x="800" y="1260" as="sourcePoint" />
            <mxPoint x="800" y="390" as="targetPoint" />
          </mxGeometry>
        </mxCell>
        <mxCell id="zziCevXuJVocLzWldBi8-28" value="" style="endArrow=classic;html=1;rounded=0;" edge="1" parent="1">
          <mxGeometry width="50" height="50" relative="1" as="geometry">
            <mxPoint x="520" y="1260" as="sourcePoint" />
            <mxPoint x="520" y="1308" as="targetPoint" />
          </mxGeometry>
        </mxCell>
        <mxCell id="zziCevXuJVocLzWldBi8-29" value="" style="endArrow=none;html=1;rounded=0;" edge="1" parent="1">
          <mxGeometry width="50" height="50" relative="1" as="geometry">
            <mxPoint x="800" y="1260" as="sourcePoint" />
            <mxPoint x="520" y="1260" as="targetPoint" />
          </mxGeometry>
        </mxCell>
        <mxCell id="zziCevXuJVocLzWldBi8-30" value="" style="edgeStyle=orthogonalEdgeStyle;rounded=0;orthogonalLoop=1;jettySize=auto;html=1;" edge="1" parent="1" source="zziCevXuJVocLzWldBi8-31" target="zziCevXuJVocLzWldBi8-12">
          <mxGeometry relative="1" as="geometry" />
        </mxCell>
        <mxCell id="zziCevXuJVocLzWldBi8-31" value="โค้ดของเรา" style="shape=process;whiteSpace=wrap;html=1;backgroundOutline=1;" vertex="1" parent="1">
          <mxGeometry x="464" y="510" width="120" height="60" as="geometry" />
        </mxCell>
        <mxCell id="zziCevXuJVocLzWldBi8-32" value="" style="endArrow=none;html=1;rounded=0;exitX=0.5;exitY=1;exitDx=0;exitDy=0;" edge="1" parent="1" source="zziCevXuJVocLzWldBi8-22">
          <mxGeometry width="50" height="50" relative="1" as="geometry">
            <mxPoint x="860" y="1090" as="sourcePoint" />
            <mxPoint x="524" y="1140" as="targetPoint" />
          </mxGeometry>
        </mxCell>
        <mxCell id="zziCevXuJVocLzWldBi8-33" value="" style="endArrow=none;html=1;rounded=0;" edge="1" parent="1">
          <mxGeometry width="50" height="50" relative="1" as="geometry">
            <mxPoint x="310" y="1140" as="sourcePoint" />
            <mxPoint x="310" y="280" as="targetPoint" />
          </mxGeometry>
        </mxCell>
        <mxCell id="zziCevXuJVocLzWldBi8-34" value="" style="endArrow=none;html=1;rounded=0;" edge="1" parent="1">
          <mxGeometry width="50" height="50" relative="1" as="geometry">
            <mxPoint x="524" y="1140" as="sourcePoint" />
            <mxPoint x="310" y="1140" as="targetPoint" />
            <Array as="points">
              <mxPoint x="444" y="1140" />
            </Array>
          </mxGeometry>
        </mxCell>
        <mxCell id="zziCevXuJVocLzWldBi8-35" value="" style="endArrow=classic;html=1;rounded=0;" edge="1" parent="1">
          <mxGeometry width="50" height="50" relative="1" as="geometry">
            <mxPoint x="310" y="280" as="sourcePoint" />
            <mxPoint x="510" y="280" as="targetPoint" />
          </mxGeometry>
        </mxCell>
        <mxCell id="zziCevXuJVocLzWldBi8-36" value="End" style="ellipse;whiteSpace=wrap;html=1;" vertex="1" parent="1">
          <mxGeometry x="464" y="1790" width="120" height="50" as="geometry" />
        </mxCell>
      </root>
    </mxGraphModel>
  </diagram>
</mxfile>
